<?xml version="1.0" encoding="UTF-8" standalone="no"?>
<!-- Created with Inkscape (http://www.inkscape.org/) -->

<svg
   version="1.1"
   id="svg1"
   width="512"
   height="512"
   viewBox="0 0 512 512"
   sodipodi:docname="feather2.jpeg"
   xmlns:inkscape="http://www.inkscape.org/namespaces/inkscape"
   xmlns:sodipodi="http://sodipodi.sourceforge.net/DTD/sodipodi-0.dtd"
   xmlns="http://www.w3.org/2000/svg"
   xmlns:svg="http://www.w3.org/2000/svg">
  <defs
     id="defs1" />
  <sodipodi:namedview
     id="namedview1"
     pagecolor="#ffffff"
     bordercolor="#000000"
     borderopacity="0.25"
     inkscape:showpageshadow="2"
     inkscape:pageopacity="0.0"
     inkscape:pagecheckerboard="0"
     inkscape:deskcolor="#d1d1d1">
    <inkscape:page
       x="0"
       y="0"
       width="512"
       height="512"
       id="page2"
       margin="0"
       bleed="0" />
  </sodipodi:namedview>
  <g
     inkscape:groupmode="layer"
     inkscape:label="Image"
     id="g1">
    <path
       id="path1"
       style="fill:#1a1a1a;fill-opacity:1"
       d="m 427.59766,42.941406 c -3.46737,-0.177801 -9.10438,0.808354 -19.17383,3.105469 C 371.39458,54.494255 328.7059,69.758429 292.5,87.498047 191.65096,136.91052 124.40128,207.16287 91.474609,297.5 l -4.738281,13 1.228516,8.5 c 2.573815,17.80345 2.834355,15.6296 -1.951172,16.27148 -6.693455,0.89778 -8.734714,3.57963 -9.578125,12.58008 -0.886308,9.45822 0.938395,29.25983 3.722656,40.39258 2.364448,9.45415 7.241476,20.49012 11.546875,26.125 l 2.957031,3.86719 -8.513671,19.63281 c -9.022961,20.80868 -10.072467,25.34712 -6.720704,29.05078 2.149688,2.37537 7.234394,2.77847 9.955078,0.78906 0.970995,-0.71001 3.443913,-5.54751 5.494141,-10.75 2.050228,-5.2025 6.079517,-14.65677 8.955077,-21.00976 l 5.22852,-11.55078 10.2207,-1.1543 c 19.15252,-2.16416 38.6972,-8.42988 54.48828,-17.46484 13.20169,-7.55343 15.97769,-11.27633 13.72852,-18.41797 -0.62038,-1.96987 0.50077,-2.59264 14.16406,-7.85938 C 217.12867,373.54011 221,370.91364 221,366.37891 c 0,-3.82814 -1.70781,-6.23819 -6.63867,-9.36524 l -4.4961,-2.85156 8.81641,-2.61719 c 18.46934,-5.48135 16.52401,-3.7933 36.78906,-31.91406 26.5102,-36.78681 162.8126,-239.112683 175.72071,-260.837891 4.34022,-7.304878 4.54139,-10.91631 0.79297,-14.308594 -1.00699,-0.911308 -2.3063,-1.436288 -4.38672,-1.542969 z M 408,64.716797 C 408,65.714502 312.36712,208.75894 282.45703,252.5 c -26.05773,38.10729 -49.50804,71.41332 -54.38867,77.24414 -1.45015,1.73247 -6.84586,3.58765 -23.68555,8.15039 -16.81379,4.55572 -22.21462,6.41404 -23.59375,8.11719 -3.7761,4.66328 -1.65418,9.91792 5.67578,14.05469 3.04459,1.71826 5.75542,3.48114 6.02539,3.91797 0.26997,0.43681 -6.59254,3.80383 -15.25,7.48046 -9.12214,3.87397 -16.68631,7.72803 -17.99023,9.16602 -2.9671,3.27216 -2.91454,7.79444 0.125,10.83398 l 2.37305,2.375 -5.62305,2.49805 c -8.10484,3.59984 -17.18757,6.40652 -26.34961,8.14453 C 120.90847,406.16445 119,406.31668 119,405.33594 c 0,-1.31886 23.98043,-47.34096 33.55273,-64.39258 28.99866,-51.65675 59.05705,-96.0893 89.25782,-131.94336 6.16038,-7.31355 15.74878,-15.5315 25.25781,-25.11719 -18.97502,18.9736 -36.7218,39.13896 -52.22656,61.06836 -36.63051,50.02988 -67.44535,104.10761 -94.66797,159.7461 0.65233,1.56947 4.39244,-0.43652 5.91992,-0.23829 11.60529,-2.7639 23.76555,-5.33996 34.24805,-11.03906 -3.67915,-3.00067 -5.18444,-8.78621 -1.82227,-12.64453 9.54969,-7.54632 21.93535,-10.53592 32.26758,-16.59375 -4.51429,-4.14892 -13.04623,-7.32697 -12.54102,-14.69336 2.01519,-6.50981 10.46566,-7.06257 15.85743,-9.2832 11.22387,-3.62381 23.26076,-6.22807 33.78906,-11.03125 54.36863,-76.59447 106.49985,-154.76113 158.52344,-232.960939 6.29345,-9.951953 13.70375,-20.174037 19.11523,-30.195313 -54.76753,13.193261 -107.52511,35.562252 -154.96289,66.062502 -40.3619,26.05819 -76.65698,59.03948 -104.16992,98.5664 -17.06541,25.1896 -30.89991,52.54491 -40.76758,81.31446 1.26769,11.16672 5.52659,22.37044 4.2168,33.66797 -2.48842,6.29983 -10.878908,6.07131 -16.517582,5.9375 1.336741,14.8752 2.481735,30.3004 8.304692,44.15234 10.77626,-16.62992 18.61569,-35.12381 28.57617,-52.29883 31.50738,-57.14866 66.69387,-112.94806 111.14453,-161.00781 25.01212,-26.06289 51.13531,-52.28149 83.36914,-69.32227 4.97301,-3.71687 12.75026,-0.76606 13.4082,5.54688 0.94707,7.62635 -8.00577,11.27678 -12.77929,15.42578 -16.51602,10.91142 -31.72991,23.58081 -45.83985,37.44141 6.90001,-6.56712 14.35741,-15.17007 18.98633,-18.88086 6.05,-4.85 16.75452,-12.63895 23.78711,-17.31055 14.34676,-9.53025 16.25246,-11.62315 15.28516,-16.7793 -0.76941,-4.10131 -3.80062,-6.5332 -8.14258,-6.5332 -5.02237,0 -27.35575,14.85725 -46.25586,30.77148 C 224.2576,192.38003 168.55858,269.09833 113.14258,376.9668 l -11.02735,21.46679 -2.160152,-4.96679 C 97.011683,386.69762 94.150669,372.50942 93.357422,360.75 L 92.699219,351 h 4.585937 c 6.002954,0 9.210764,-1.29934 11.380864,-4.61133 1.70956,-2.60913 1.67724,-3.23862 -0.93555,-18.48437 l -2.70508,-15.78321 3.45313,-9.92187 C 118.90282,272.25097 137.86326,238.43898 159.05664,212 170.58819,197.61426 192.9537,174.88166 208,162.25391 250.48272,126.5999 305.05511,96.768073 363.9668,76.996094 381.95309,70.959521 408,63.695966 408,64.716797 Z" />
  </g>
</svg>
