<?xml version="1.0" encoding="UTF-8" standalone="no"?>
<!-- Created with Inkscape (http://www.inkscape.org/) -->

<svg
   version="1.1"
   id="svg1"
   width="24"
   height="24"
   viewBox="0 0 24 24"
   xmlns="http://www.w3.org/2000/svg"
   xmlns:svg="http://www.w3.org/2000/svg">
  <defs
     id="defs1" />
  <g
     id="g1">
    <path
       id="path1"
       style="fill:#000000;stroke-width:0.0490237"
       d="M 0.64964025,0.77045074 0.5217191,0.89846709 C 0.34759929,1.0725869 0.35069458,1.2910929 0.52977466,1.4635808 0.60459377,1.5356537 1.0069252,1.903511 1.4238825,2.2809923 2.490615,3.2467325 3.7988008,4.5616411 4.1644209,5.0357025 c 0.2874616,0.3727188 0.327117,0.4053438 0.5515169,0.4534697 0.1329876,0.028524 0.2982341,0.051897 0.3671983,0.051897 0.1009265,0 0.1181483,0.016746 0.088184,0.085792 -0.1139008,0.2625016 -0.086207,0.3925892 0.1350064,0.6340523 0.3677487,0.4014124 0.7396534,0.8598485 1.1382684,1.4031121 0.2103503,0.2866805 0.4185634,0.5318948 0.4626616,0.5448142 0.044098,0.012925 0.223537,0.047357 0.3987968,0.076601 0.609866,0.1017686 0.5913236,0.094348 0.5584093,0.2254899 -0.057561,0.22932 0.020371,0.3453311 0.4337458,0.6464029 0.5034032,0.3666429 1.1054862,0.8808454 1.9002426,1.6227604 0.604046,0.563887 0.617467,0.573024 0.942652,0.637596 0.29591,0.05876 0.324949,0.07475 0.281886,0.15521 -0.116476,0.217645 -0.05824,0.34327 0.359922,0.776527 0.590004,0.611306 1.234692,1.332817 2.063975,2.310049 0.400415,0.471853 0.765737,0.891758 0.811858,0.933174 0.04612,0.04141 0.230202,0.104441 0.409041,0.139985 0.302431,0.06011 0.321522,0.07145 0.272694,0.162678 -0.07766,0.145117 -0.01765,0.355897 0.24014,0.843457 l 0.231043,0.437096 2.987381,1.499339 2.987475,1.499435 0.239375,0.686332 c 0.131657,0.377482 0.359488,1.094453 0.506322,1.59327 0.186597,0.633898 0.297853,0.932766 0.369593,0.99273 0.219078,0.183115 0.631084,0.01184 0.631084,-0.262354 0,-0.130859 -0.357746,-1.349287 -0.658852,-2.243791 -0.163974,-0.487126 -0.208475,-0.678284 -0.173115,-0.744356 0.02907,-0.05431 0.04759,-1.116032 0.04759,-2.728952 v -2.639906 l -0.274718,-0.684612 c -0.771918,-1.923755 -1.614851,-3.446749 -1.954916,-3.532099 -0.199436,-0.05005 -0.353112,0.01647 -0.468214,0.202701 -0.05923,0.09584 -0.117416,0.164566 -0.129261,0.152721 -0.01184,-0.01184 0.0046,-0.20853 0.03658,-0.437096 l 0.05822,-0.415552 -0.525088,-0.8402969 C 18.952866,8.4120733 18.487158,7.7778594 18.050374,7.3112823 17.815759,7.0606615 17.793371,7.0485208 17.616247,7.0768874 c -0.103063,0.016502 -0.225257,0.076992 -0.272598,0.1349111 -0.0834,0.1020494 -0.08579,0.094751 -0.08579,-0.2640772 0,-0.2030039 -0.01308,-0.4032726 -0.02911,-0.4450431 C 17.188189,6.3969794 15.894987,5.315919 15.321419,4.9082598 15.059751,4.7222788 15.005095,4.7022302 14.826299,4.726049 L 14.625322,4.752767 14.563272,4.472891 C 14.529167,4.3189245 14.482152,4.1565316 14.458803,4.1121076 14.369826,3.9427809 12.68643,3.073677 11.620121,2.6465673 8.7860118,1.5113674 5.5946657,0.91414126 1.7692331,0.80300865 Z m 1.19217465,0.78983706 0.2686726,0.02806 c 0.1477574,0.015416 0.4451578,0.041108 0.6608627,0.057158 0.5599276,0.041657 1.5575397,0.1969891 2.2229172,0.3460378 1.9847324,0.4445915 3.9727933,1.3142116 5.7868056,2.5313269 0.429349,0.2880719 1.511739,1.1035391 1.552672,1.1697693 0.04161,0.067313 0.05422,0.068814 -3.7776011,-0.4544266 L 4.9774154,4.749509 4.7133393,4.4467492 C 4.5681085,4.2801979 3.862585,3.5625362 3.1455385,2.8520428 Z m 7.1894376,1.040508 c 0.079823,-0.00269 1.1961095,0.3544278 1.7576725,0.5623358 0.94226,0.3488535 2.763668,1.2087777 2.955688,1.395452 0.02252,0.021897 0.13702,0.4222837 0.254501,0.8897994 0.117477,0.4675144 0.209324,0.8539557 0.204138,0.8587756 -0.0051,0.00476 -0.252051,-0.2120688 -0.548644,-0.4820022 C 12.339731,4.6284668 10.89488,3.5967846 9.5366187,2.8846922 9.240025,2.7291991 9.0125966,2.6014293 9.0312525,2.6007958 Z m 6.2901605,3.2767352 0.576029,0.4777901 0.576028,0.4778842 v 0.9962732 c 0,0.5479192 -0.0055,0.9954925 -0.01225,0.9946442 -0.0067,-8.483e-4 -0.048,-0.050482 -0.09163,-0.1103002 -0.04363,-0.059819 -0.303332,-0.3689119 -0.577177,-0.6868118 l -0.497898,-0.5779428 0.0134,-0.7858155 z M 6.4449671,6.3367445 c 0.00854,-0.00854 1.5901319,0.062943 3.5145757,0.1588484 l 3.4989702,0.1743603 0.606094,0.6243807 c 0.617224,0.6358794 1.428389,1.5439813 1.428389,1.5990154 0,0.037458 0.536887,0.1270887 -3.774824,-0.6302222 C 9.6824635,7.9055743 7.8567231,7.5859502 7.6609827,7.5529529 L 7.305083,7.4930146 6.8673167,6.9226355 C 6.6265188,6.6089347 6.4364246,6.3452871 6.4449671,6.3367445 Z m 11.3666969,1.882625 0.118538,0.1438162 c 0.179552,0.2177236 0.58452,0.81805 0.947346,1.4043559 l 0.324972,0.5251854 -0.139315,0.970036 c -0.07662,0.533515 -0.145733,0.989747 -0.153581,1.01389 -0.0078,0.02414 -0.1721,-0.208894 -0.364997,-0.517908 -0.192898,-0.309013 -0.560513,-0.86119 -0.816934,-1.227028 L 17.261489,9.8665457 17.536577,9.0430058 Z M 9.6505598,9.1801189 c 0.021542,-0.00732 1.3283032,0.1182215 2.9039842,0.2790142 1.57568,0.160794 3.053044,0.3073112 3.282958,0.3255473 l 0.418043,0.033126 0.39621,0.5456746 c 0.422521,0.581888 1.096331,1.579152 1.096331,1.62257 0,0.03568 0.278277,0.09201 -3.30728,-0.670054 l -3.233744,-0.687289 -0.271449,-0.24531 C 10.786326,10.248463 10.427248,9.9254612 10.137734,9.6656607 9.8538725,9.410934 9.6376416,9.1958675 9.6496029,9.1806901 c 1.965e-4,-1.965e-4 6.225e-4,-4.419e-4 9.557e-4,-5.737e-4 z M 20.444962,11.718051 c 0.08929,0 0.990827,1.896048 1.3741,2.889908 l 0.146305,0.379455 -0.01283,1.722148 -0.01293,1.722053 -0.09307,-0.231522 C 21.386578,17.055532 20.315709,14.814709 19.72904,13.769195 l -0.265704,-0.473576 0.472714,-0.788784 c 0.259984,-0.433835 0.489007,-0.788784 0.508908,-0.788784 z m -7.526859,0.597476 c 0.06059,-0.01338 4.902806,0.538633 5.296473,0.603797 0.132247,0.0219 0.192421,0.103197 0.571719,0.772027 0.233167,0.411152 0.604291,1.094971 0.82469,1.519638 0.235446,0.453658 0.373631,0.769705 0.335122,0.766282 -0.03604,-0.0032 -0.506704,-0.102049 -1.045966,-0.219648 -0.53926,-0.117599 -1.612289,-0.3498 -2.384541,-0.51609 L 15.111435,14.939157 14.546609,14.272262 C 14.235957,13.9055 13.726887,13.318675 13.415234,12.968155 13.061262,12.570037 12.874656,12.325121 12.918103,12.315527 Z m 3.464213,4.232985 c 0.0096,-0.0095 0.900045,0.05732 1.978565,0.148603 1.078522,0.09128 1.983845,0.166512 2.011886,0.167179 0.02804,6.66e-4 0.125521,0.172214 0.216585,0.381178 0.255261,0.585747 0.737462,1.734563 0.737462,1.757001 0,0.01098 -0.01655,0.01891 -0.03676,0.01743 -0.06381,-0.0046 -4.926232,-2.453222 -4.907731,-2.471388 z" />
  </g>
</svg>
