<?xml version="1.0" encoding="UTF-8" standalone="no"?>
<!-- Created with Inkscape (http://www.inkscape.org/) -->

<svg
   version="1.1"
   id="svg1"
   width="24"
   height="24"
   viewBox="0 0 24 24"
   sodipodi:docname="feather2.jpeg"
   xmlns:inkscape="http://www.inkscape.org/namespaces/inkscape"
   xmlns:sodipodi="http://sodipodi.sourceforge.net/DTD/sodipodi-0.dtd"
   xmlns="http://www.w3.org/2000/svg"
   xmlns:svg="http://www.w3.org/2000/svg">
  <defs
     id="defs1" />
  <sodipodi:namedview
     id="namedview1"
     pagecolor="#ffffff"
     bordercolor="#000000"
     borderopacity="0.25"
     inkscape:showpageshadow="2"
     inkscape:pageopacity="0.0"
     inkscape:pagecheckerboard="0"
     inkscape:deskcolor="#d1d1d1">
    <inkscape:page
       x="0"
       y="0"
       width="24"
       height="24"
       id="page2"
       margin="0"
       bleed="0" />
  </sodipodi:namedview>
  <g
     inkscape:groupmode="layer"
     inkscape:label="Image"
     id="g1">
    <path
       style="fill:#1a1a1a;fill-opacity:1;stroke-width:0.04914"
       d="M 4.1629695,22.631877 C 3.9982636,22.449879 4.0498716,22.226817 4.4932603,21.204279 L 4.9115663,20.239585 4.7663189,20.049488 C 4.5547521,19.77259 4.3150497,19.230317 4.1988597,18.765739 4.0620417,18.218675 3.9723501,17.245605 4.0159034,16.780828 c 0.041445,-0.442281 0.1417847,-0.574058 0.470701,-0.618175 0.235161,-0.03154 0.2223519,0.07529 0.095876,-0.799574 l -0.060381,-0.41769 0.232841,-0.638821 C 6.3729576,9.8673985 9.6776276,6.4151545 14.633352,3.9870241 c 1.779159,-0.8717254 3.876847,-1.6218039 5.696465,-2.0369079 0.791699,-0.1806089 1.02581,-0.1961182 1.157767,-0.076701 0.1842,0.1666971 0.174383,0.3440923 -0.03888,0.7030541 -0.634304,1.0675772 -7.332271,11.0099517 -8.634983,12.8176557 -0.995825,1.381855 -0.90018,1.298883 -1.807763,1.568236 l -0.433304,0.128597 0.220965,0.140132 c 0.242303,0.153664 0.326234,0.272054 0.326234,0.460169 0,0.222837 -0.190225,0.351934 -0.950253,0.6449 -0.6714136,0.258807 -0.7265014,0.289372 -0.6960163,0.386171 0.1105226,0.350941 -0.025861,0.533934 -0.6745951,0.90511 -0.7759744,0.443978 -1.7364896,0.751815 -2.6776444,0.858162 l -0.502197,0.05675 -0.2569187,0.567611 c -0.1413047,0.312186 -0.3393485,0.776781 -0.440097,1.032433 -0.1007461,0.25565 -0.2222176,0.493365 -0.2699321,0.528255 -0.1336938,0.09776 -0.3835765,0.07795 -0.489212,-0.03876 z M 6.6371011,19.563711 C 7.087325,19.478301 7.5335729,19.340353 7.931845,19.163458 L 8.2082262,19.0407 8.0915503,18.924024 C 7.9421869,18.774661 7.9396364,18.552382 8.085492,18.391588 8.1495675,18.320919 8.5212995,18.131533 8.9695609,17.941166 9.3949896,17.760496 9.7322118,17.595113 9.7189453,17.573647 9.7056764,17.552182 9.5724161,17.465536 9.4228044,17.381101 9.0626094,17.17782 8.9583435,16.919636 9.1439012,16.690482 c 0.06777,-0.08369 0.3332296,-0.175017 1.1594598,-0.398885 0.827503,-0.224213 1.092583,-0.315451 1.163843,-0.400586 0.239835,-0.286526 1.392239,-1.923151 2.672716,-3.795745 1.469783,-2.1494365 6.169154,-9.1786361 6.169154,-9.2276631 0,-0.050165 -1.279943,0.3067668 -2.163792,0.6034042 -2.89492,0.9715954 -5.576612,2.437509 -7.664213,4.1895479 -0.7393766,0.6205281 -1.8384584,1.7376245 -2.4051182,2.444541 -1.0414436,1.299212 -1.9731177,2.960767 -2.485368,4.432425 l -0.1696956,0.48752 0.1329181,0.775581 c 0.1283922,0.749177 0.1299567,0.7801 0.045948,0.908312 -0.1066381,0.162752 -0.2642599,0.226625 -0.5592449,0.226625 h -0.225318 l 0.032323,0.479116 c 0.038975,0.577858 0.1795813,1.275045 0.3242193,1.607683 l 0.1061154,0.244047 0.5419194,-1.054858 C 8.5428599,12.910888 11.279905,9.1409824 14.175051,6.7032166 c 0.928752,-0.7820257 2.026245,-1.5121242 2.273043,-1.5121242 0.213368,0 0.362298,0.1195005 0.400109,0.3210393 0.04753,0.2533731 -0.04615,0.3561947 -0.751144,0.8245118 -0.345581,0.2295626 -0.871572,0.6123833 -1.16887,0.8507123 C 14.249009,7.7318246 12.821897,9.1510307 12.14244,9.9576755 10.658374,11.719546 9.1813166,13.902986 7.7563215,16.4414 7.2859389,17.279317 6.107555,19.540786 6.107555,19.605595 c 0,0.04819 0.093833,0.04077 0.5295497,-0.04189 z"
       id="path1" />
  </g>
</svg>
