<svg xmlns="http://www.w3.org/2000/svg" width="480" height="54" viewBox="0 0 480 54" role="img" aria-label="DrugBank Logo">
  <title>DrugBank Logo</title>
  <g fill="#FF00B8">
    <path d="M138.781 30.9c1.432-.826 2.97-1.523 4.254-2.539 5.356-4.239 7.05-12.173 3.947-18.289-2.943-5.803-7.9-8.727-14.221-8.902-9.095-.251-18.2-.083-27.302-.09-.212 0-.424.05-.625.075v50.978h7.23V32.378h18.005l13.399 19.73h8.153l-13.986-20.706c.433-.186.811-.308 1.146-.502m-7.678-5.449c-6.087.056-12.174.026-18.261.024-.222 0-.443-.027-.753-.047V8.209c.11-.042.185-.095.261-.095 6.734.014 13.472-.08 20.202.097 3.321.087 6.114 1.575 7.727 4.666 2.503 4.797-.114 10.68-5.35 12.032-1.241.321-2.547.53-3.826.542m105.529 5.708h15.343v8.65c-1.73 1.738-3.662 3.084-5.859 4.031-5.449 2.35-11.079 2.695-16.787 1.246-5.03-1.277-8.98-4.11-11.506-8.729-2.308-4.221-2.874-8.75-2.044-13.434.997-5.625 3.832-10.089 8.887-12.909 5.191-2.896 10.749-3.344 16.453-1.928 4.608 1.144 8.101 3.813 10.326 8.059.114.217.257.42.414.674l6.123-3.545c-.13-.266-.208-.442-.299-.611-2.385-4.42-5.89-7.686-10.446-9.732-7.482-3.359-15.149-3.478-22.785-.648-7.114 2.636-11.948 7.703-14.59 14.797-1.714 4.603-2.129 9.375-1.348 14.228.872 5.414 3.147 10.155 7.08 14.008 4.802 4.704 10.736 6.911 17.328 7.47 5.203.441 10.292-.153 15.175-2.102 4.062-1.621 7.564-4.071 10.548-7.127V24.513h-22.013zM193.968 1.14V2.2c0 9.495.008 18.991-.01 28.487-.002 1.292-.037 2.598-.22 3.874-.682 4.767-3.054 8.362-7.665 10.086-4.838 1.808-9.779 1.783-14.641.029-3.477-1.254-5.864-3.688-7.13-7.194-.768-2.129-.95-4.34-.953-6.572-.01-9.581-.004-19.161-.004-28.741V1.128h-7.282v.844c0 9.749-.01 19.498.007 29.247.004 2.598.25 5.175.998 7.681 1.559 5.221 4.713 9.175 9.661 11.459 7.226 3.337 14.665 3.42 22.118.769 3.673-1.306 6.67-3.592 8.887-6.849 2.344-3.444 3.411-7.306 3.447-11.401.092-10.396.055-20.794.064-31.191.001-.184-.056-.369-.085-.547zm113.027 26.224c-.827-.424-1.711-.734-2.654-1.133.278-.194.455-.326.639-.447 1.613-1.051 2.92-2.397 3.802-4.11 4.624-8.966-1.697-19.797-11.813-19.995-9.267-.181-18.539-.065-27.809-.077-.132 0-.264.033-.43.055v50.897h.862c9.834 0 19.667.003 29.501-.007a21 21 0 0 0 2.44-.153c7.262-.848 12.157-6.053 12.356-13.295.145-5.297-2.117-9.289-6.894-11.735M276.007 8.631c.286-.019.554-.051.823-.051q9.173-.005 18.345-.001c2.509.002 4.776.656 6.316 2.778 1.763 2.429 1.919 5.147.89 7.879-.995 2.643-3.064 4.012-5.853 4.312-.336.037-.673.092-1.009.092q-9.511.01-19.022.007c-.135 0-.271-.028-.49-.052zm30.376 31.331c-.752 3.511-3.34 5.549-7.251 5.588-7.552.076-15.106.024-22.659.022-.135 0-.269-.036-.446-.061V30.435c.149-.035.204-.059.259-.059 7.751.001 15.502-.074 23.251.035 5.304.074 7.892 4.666 6.846 9.551m110.945.84L385.289 1.651h-6.571v50.847h7.285V13.695l.176-.059 31.847 38.843h6.569V1.665h-7.267zm40.718-17.808c7.102-7.075 14.164-14.063 21.193-21.083l-.179-.246h-8.904l-28.797 28.582-.211-.13V1.673h-7.187v50.808h7.235V40.195l11.849-12.202 18.629 24.532h8.136l.19-.219zM341.587 1.628c-.124.259-.249.508-.366.761l-9.111 19.714c-4.515 9.767-9.03 19.533-13.536 29.305-.152.328-.206.701-.317 1.09h7.65l5.007-11.121h28.055l5.011 11.141h7.836c-7.861-17.083-15.705-33.991-23.5-50.89zm-7.424 32.663 10.776-23.97 10.849 23.97zM69.7-.621H51.499s1.666 2.41 3.289 7.25H69.7c10.761 0 19.516 8.755 19.516 19.516 0 5.213-2.03 10.114-5.716 13.8a19.4 19.4 0 0 1-13.8 5.716H55.132c-1.722 5.055-3.633 7.25-3.633 7.25H69.7c14.782 0 26.766-11.984 26.766-26.766C96.466 11.362 84.482-.621 69.7-.621"></path>
    <path d="M47.498-.62H26.432C11.65-.62-.334 11.363-.334 26.146a27 27 0 0 0 .964 7.116q.374 1.357.883 2.65c.244.623.504 1.239.793 1.838a26.87 26.87 0 0 0 12.963 12.73 26.7 26.7 0 0 0 11.163 2.431h21.066s6.334-7.25 6.334-25.846S47.498-.62 47.498-.62M8.486 31.505c-.072-.27-.156-.532-.218-.808-1.152-5.109-.622-10.098 2.083-14.66 3.62-6.105 9.294-9.212 16.174-9.34 0 0-15.875 8.858-18.039 24.808"></path>
  </g>
</svg>